<svg width="21" height="20" viewBox="0 0 21 20" fill="none" xmlns="http://www.w3.org/2000/svg">
<g clip-path="url(#clip0_189_4348)">
<path d="M20.1093 7.99443L18.4937 7.77159C18.3266 7.18663 18.1038 6.62953 17.7974 6.07242L18.8001 4.76323C19.023 4.45682 18.9951 4.039 18.7444 3.7883L16.9617 2.00557C16.711 1.75487 16.2653 1.69916 15.9868 1.94986L14.6776 2.95265C14.1483 2.64624 13.5912 2.4234 12.9784 2.25627L12.7556 0.640668C12.6999 0.278552 12.3935 0 12.0035 0H9.49652C9.1344 0 8.80014 0.278552 8.74443 0.640668L8.52159 2.25627C7.93663 2.4234 7.37953 2.64624 6.82242 2.95265L5.51323 1.94986C5.20682 1.72702 4.789 1.75487 4.5383 2.00557L2.75557 3.7883C2.50487 4.039 2.44916 4.48468 2.69986 4.76323L3.70265 6.07242C3.39624 6.60167 3.1734 7.15877 3.00627 7.77159L1.39067 7.99443C1.02855 8.05014 0.75 8.35655 0.75 8.74652V11.2535C0.75 11.6156 1.02855 11.9499 1.39067 12.0056L3.00627 12.2284C3.1734 12.8134 3.39624 13.3705 3.70265 13.9276L2.69986 15.2368C2.47702 15.5432 2.50487 15.961 2.75557 16.2117L4.5383 17.9944C4.789 18.2451 5.23468 18.3008 5.51323 18.0501L6.82242 17.0474C7.35167 17.3538 7.90877 17.5766 8.52159 17.7437L8.74443 19.3593C8.80014 19.7214 9.10655 20 9.49652 20H12.0035C12.3656 20 12.6999 19.7214 12.7556 19.3593L12.9784 17.7437C13.5634 17.5766 14.1205 17.3538 14.6776 17.0474L15.9868 18.0501C16.2932 18.273 16.711 18.2451 16.9617 17.9944L18.7444 16.2117C18.9951 15.961 19.0508 15.5153 18.8001 15.2368L17.7974 13.9276C18.1038 13.3983 18.3266 12.8412 18.4937 12.2284L20.1093 12.0056C20.4714 11.9499 20.75 11.6435 20.75 11.2535V8.74652C20.75 8.35655 20.4714 8.05014 20.1093 7.99443ZM19.2458 10.585L17.7695 10.7799C17.4631 10.8357 17.2124 11.0585 17.1288 11.3649C16.9617 12.1448 16.6553 12.8691 16.2375 13.5376C16.0703 13.7883 16.0703 14.1504 16.2653 14.4011L17.1567 15.5989L16.2932 16.4624L15.0954 15.571C14.8447 15.376 14.5104 15.376 14.2319 15.5432C13.5634 15.961 12.8391 16.2674 12.0592 16.4345C11.7528 16.4902 11.5299 16.7688 11.4742 17.0752L11.2792 18.5515H10.0815L9.88649 17.0752C9.83078 16.7688 9.60794 16.5181 9.30153 16.4345C8.52159 16.2674 7.79735 15.961 7.12883 15.5432C6.87813 15.376 6.51602 15.376 6.26532 15.571L5.06755 16.4624L4.20404 15.5989L5.0954 14.4011C5.29039 14.1504 5.29039 13.8162 5.12326 13.5376C4.70543 12.8691 4.39902 12.1448 4.23189 11.3649C4.17618 11.0585 3.89763 10.8357 3.59123 10.7799L2.1149 10.585V9.38719L3.59123 9.1922C3.89763 9.13649 4.14833 8.91365 4.23189 8.60724C4.39902 7.8273 4.70543 7.10306 5.12326 6.43454C5.29039 6.18384 5.29039 5.82173 5.0954 5.57103L4.20404 4.37326L5.06755 3.50975L6.26532 4.40111C6.51602 4.5961 6.85028 4.5961 7.12883 4.42897C7.79735 4.01114 8.52159 3.70474 9.30153 3.5376C9.60794 3.48189 9.83078 3.20334 9.88649 2.89694L10.0815 1.42061H11.2792L11.4742 2.89694C11.5299 3.20334 11.7528 3.45404 12.0592 3.5376C12.8391 3.70474 13.5634 4.01114 14.2319 4.42897C14.4826 4.5961 14.8447 4.5961 15.0954 4.40111L16.2932 3.50975L17.1567 4.37326L16.2653 5.57103C16.0703 5.82173 16.0703 6.15599 16.2375 6.43454C16.6553 7.10306 16.9617 7.8273 17.1288 8.60724C17.1845 8.91365 17.4631 9.13649 17.7695 9.1922L19.2458 9.38719V10.585Z" fill="black"/>
<path d="M10.75 6.71313C8.9394 6.71313 7.46307 8.18946 7.46307 10C7.46307 11.8106 8.9394 13.287 10.75 13.287C12.5606 13.287 14.0369 11.8106 14.0369 10C14.0369 8.18946 12.5327 6.71313 10.75 6.71313ZM10.75 11.7828C9.77505 11.7828 8.96725 10.975 8.96725 10C8.96725 9.02511 9.77505 8.21731 10.75 8.21731C11.7249 8.21731 12.5327 9.02511 12.5327 10C12.5327 10.975 11.7249 11.7828 10.75 11.7828Z" fill="black"/>
</g>
<defs>
<clipPath id="clip0_189_4348">
<rect width="20" height="20" fill="white" transform="translate(0.75)"/>
</clipPath>
</defs>
</svg>
