<svg width="40" height="40" viewBox="0 0 40 40" fill="none" xmlns="http://www.w3.org/2000/svg">
<rect width="40" height="40" rx="15" fill="#4F46E5"/>
<g clip-path="url(#clip0_101_559)">
<path d="M30.9751 16.7876C29.2432 10.986 23.0086 7.70942 17.0756 9.48037L17.0253 9.49713C14.1371 10.3575 11.7656 12.2765 10.3382 14.9022C8.93875 17.4804 8.6259 20.4301 9.45551 23.2122C11.1874 29.0111 17.422 32.2904 23.355 30.5195C23.9499 30.3407 24.5253 30.1228 25.07 29.8658C26.1985 30.2904 27.8047 30.6284 28.6929 30.8156C28.908 30.8603 29.1287 30.9077 29.1566 30.9133C29.3745 30.9943 29.5924 31.0027 29.7795 30.9468C29.9164 30.905 30.0393 30.8295 30.1343 30.7234C30.3131 30.5195 30.4583 30.1396 30.1091 29.4748C29.9695 29.2318 29.7237 28.7513 29.4667 28.2429C29.2544 27.8267 29.0198 27.3658 28.8047 26.958C31.2265 24.1284 32.0393 20.3547 30.9751 16.7876Z" fill="white"/>
<path d="M20.2624 26.1425C18.4999 26.1425 17.444 24.1341 17.3267 23.8994C17.1451 23.5391 17.2932 23.0978 17.6535 22.919C18.0138 22.7374 18.4524 22.8855 18.6339 23.2458C18.8267 23.6257 19.5306 24.6816 20.2708 24.6816C20.2876 24.6816 20.3071 24.6816 20.3267 24.6816C20.3574 24.6816 20.3462 24.6788 20.363 24.6788C20.4943 24.6564 21.43 24.4302 22.4999 22.595C22.7038 22.2458 23.1507 22.1285 23.4999 22.3324C23.849 22.5363 23.9664 22.9832 23.7624 23.3324C22.2541 25.919 20.7289 26.1257 20.4189 26.1425C20.3658 26.1452 20.3155 26.148 20.2624 26.148V26.1425Z" fill="#4F46E5"/>
</g>
<defs>
<clipPath id="clip0_101_559">
<rect width="22.433" height="22" fill="white" transform="translate(9 9)"/>
</clipPath>
</defs>
</svg>
