<svg width="16" height="15" viewBox="0 0 16 15" fill="none" xmlns="http://www.w3.org/2000/svg">
<g clip-path="url(#clip0_189_3933)">
<path d="M14.983 5.30979C13.8022 1.35411 9.5513 -0.879896 5.5061 0.32757L5.47181 0.338997C3.50254 0.925589 1.8856 2.23399 0.912393 4.02424C-0.0417715 5.78211 -0.255078 7.79329 0.310565 9.69019C1.49137 13.644 5.74226 15.8799 9.78746 14.6724C10.1931 14.5505 10.5855 14.402 10.9568 14.2268C11.7263 14.5162 12.8214 14.7467 13.427 14.8743C13.5736 14.9048 13.7241 14.9371 13.7431 14.941C13.8917 14.9962 14.0403 15.0019 14.1679 14.9638C14.2612 14.9352 14.345 14.8838 14.4097 14.8114C14.5316 14.6724 14.6307 14.4134 14.3926 13.9601C14.2974 13.7944 14.1298 13.4669 13.9545 13.1202C13.8098 12.8365 13.6498 12.5222 13.5032 12.2442C15.1544 10.3149 15.7086 7.74187 14.983 5.30979Z" fill="#A6A6A6"/>
<path d="M7.67902 11.688C6.47727 11.688 5.75736 10.3187 5.67737 10.1587C5.55358 9.91301 5.65452 9.61209 5.9002 9.4902C6.14588 9.36641 6.44489 9.46735 6.56869 9.71303C6.7001 9.97205 7.18004 10.692 7.68474 10.692C7.69616 10.692 7.70949 10.692 7.72283 10.692C7.74378 10.692 7.73616 10.6901 7.74759 10.6901C7.8371 10.6748 8.47511 10.5205 9.20454 9.26928C9.34357 9.03121 9.6483 8.95122 9.88636 9.09025C10.1244 9.22928 10.2044 9.53401 10.0654 9.77207C9.03695 11.5357 7.99708 11.6766 7.78568 11.688C7.74949 11.6899 7.71521 11.6918 7.67902 11.6918V11.688Z" fill="white"/>
</g>
<defs>
<clipPath id="clip0_189_3933">
<rect width="15.2952" height="15" fill="white"/>
</clipPath>
</defs>
</svg>
